<svg transform="scale(1)" version="1.1" id="Tmabm8Ios7" xmlns="http://www.w3.org/2000/svg" xmlns:xlink="http://www.w3.org/1999/xlink" x="0px" y="0px" width="500px" height="500px" viewBox="0 0 500 500" xml:space="preserve" class="pbimage_pbimage__wrapper__image__0LEis false"><title>Online Store</title><style type="text/css"> .st0{fill:#005596;} .st1{fill:#FFFFFF;} .st2{fill:#FFDC32;} .st3{fill:#000001;} .st4{fill:#FFB0CC;}
 .st4{fill:#9000ff;}
 .st3{fill:#000001;}
 .st2{fill:#7C3AED;}
 .st1{fill:#FFFFFF;}
 .st0{fill:#005596;}</style><g id="store"><g id="colors"><path d="M101.49,363.5l-7.57-3.49c-4.05-1.87-6.64-5.92-6.64-10.37V171.39c0-9.08,5.45-17.25,13.82-20.75l230.61-96.36
			c2.62-1.1,5.58-1,8.12,0.26l8.13,4.04"></path><path class="st0" d="M202.84,324.55l-11.37,23.83c-2.42,5.08-0.29,11.16,4.78,13.62l36.29,17.6l44.31-17.75l-39.68-18.42
			c-4.59-2.14-6.15-7.9-3.24-12.05l19.18-27.32L202.84,324.55z"></path><path d="M192.42,347.1c3-2.91,5.63-6.2,7.83-9.76l50.11-28.98l2.66-4.46l-50.4,20.63L192.42,347.1z"></path><path class="st0" d="M352.48,66.84v181.22c0,8.66-5.21,16.48-13.21,19.8l-230.1,95.57c-6.98,2.9-14.66-2.23-14.66-9.78V174.97
			c0-9.59,5.79-18.24,14.65-21.9l230.15-95.06C345.58,55.43,352.48,60.04,352.48,66.84z"></path><path class="st1" d="M352.48,66.84V220.1L94.5,326.23V174.97c0-9.59,5.79-18.24,14.65-21.9L339.3,58.01
			C345.58,55.43,352.48,60.04,352.48,66.84z"></path><polygon class="st2" points="113.09,187.81 113.09,296.46 337.64,203.48 337.64,159.71 159.29,234.14 159.29,239.73 133.73,249.6 
			133.9,215.93 130.3,223.69 120.49,219.76 126.48,198.53 		"></polygon><polygon class="st3" points="293.52,197.33 293.52,215.21 330.35,200.56 330.35,181.88 		"></polygon><polygon class="st4" points="96.92,174.31 352.37,69.11 412.31,116.2 412.72,128.43 157.47,234.65 156.86,223.24 		"></polygon></g><g id="line"><path d="M105.1,364.74c-2.16,0-4.3-0.63-6.15-1.87c-3.09-2.06-4.93-5.51-4.93-9.23V174.97c0-9.83,5.87-18.61,14.96-22.36
			l230.15-95.06c3.09-1.28,6.61-0.93,9.4,0.94c2.79,1.87,4.46,4.99,4.46,8.35v1.64c0,0.28-0.22,0.5-0.5,0.5s-0.5-0.22-0.5-0.5v-1.64
			c0-3.02-1.5-5.83-4.02-7.52c-2.51-1.68-5.67-2-8.46-0.85l-230.15,95.06c-8.71,3.6-14.34,12.01-14.34,21.44v178.68
			c0,3.38,1.68,6.52,4.49,8.4s6.35,2.22,9.48,0.92l230.1-95.57c7.84-3.25,12.9-10.85,12.9-19.34v-94.23c0-0.28,0.22-0.5,0.5-0.5
			s0.5,0.22,0.5,0.5v94.23c0,8.9-5.31,16.86-13.52,20.27l-230.1,95.57C107.98,364.46,106.54,364.74,105.1,364.74z"></path><path d="M101.49,364c-0.07,0-0.14-0.01-0.21-0.05l-7.57-3.49c-4.21-1.94-6.94-6.19-6.94-10.82V171.39
			c0-9.3,5.55-17.63,14.13-21.21l230.61-96.36c2.75-1.15,5.86-1.05,8.54,0.27l8.13,4.04c0.25,0.12,0.35,0.42,0.23,0.67
			c-0.12,0.25-0.43,0.35-0.67,0.23l-8.13-4.04c-2.41-1.2-5.22-1.29-7.71-0.25L101.29,151.1c-8.21,3.43-13.51,11.39-13.51,20.29
			v178.26c0,4.24,2.49,8.13,6.35,9.91l7.57,3.49c0.25,0.12,0.36,0.41,0.25,0.66C101.86,363.89,101.68,364,101.49,364z"></path><path d="M95.5,326.73c-0.2,0-0.38-0.12-0.46-0.31c-0.1-0.25,0.02-0.55,0.27-0.65l255.73-105.44c0.26-0.1,0.55,0.02,0.65,0.27
			c0.11,0.26-0.02,0.55-0.27,0.65L95.69,326.7C95.63,326.72,95.56,326.73,95.5,326.73z"></path><path d="M229.25,300.48c-0.09,0-0.19,0-0.28-0.01c-1.44-0.11-2.71-1.06-3.58-2.67c-0.83-1.53-1.2-3.51-1.04-5.55
			c0.34-4.3,2.98-7.63,5.86-7.39c2.89,0.23,4.96,3.92,4.62,8.22C234.49,297.25,232.03,300.48,229.25,300.48z M229.91,285.85
			c-2.26,0-4.28,2.84-4.57,6.48l0,0c-0.15,1.86,0.18,3.63,0.92,5c0.7,1.3,1.69,2.06,2.78,2.15c2.35,0.16,4.48-2.72,4.78-6.47
			c0.3-3.75-1.36-6.96-3.7-7.14C230.05,285.86,229.98,285.85,229.91,285.85z M224.84,292.29L224.84,292.29L224.84,292.29z"></path><path d="M232.54,380.1c-0.07,0-0.15-0.02-0.22-0.05l-36.29-17.6c-5.29-2.56-7.54-8.97-5.01-14.28l11.37-23.83
			c0.12-0.25,0.42-0.36,0.67-0.24c0.25,0.12,0.35,0.42,0.24,0.67l-11.37,23.83c-2.3,4.82-0.26,10.63,4.54,12.95l36.09,17.5
			l43.03-17.24l-38.63-17.94c-2.33-1.08-4.04-3.13-4.71-5.6c-0.66-2.47-0.2-5.09,1.27-7.19l19.19-27.32
			c0.16-0.23,0.47-0.28,0.7-0.12c0.23,0.16,0.28,0.47,0.12,0.7l-19.19,27.32c-1.3,1.85-1.71,4.17-1.12,6.36
			c0.59,2.19,2.1,4,4.16,4.96l39.68,18.42c0.18,0.08,0.29,0.27,0.29,0.47c-0.01,0.2-0.13,0.38-0.31,0.45l-44.31,17.75
			C232.67,380.09,232.6,380.1,232.54,380.1z"></path><path d="M232.2,375.82c-0.07,0-0.15-0.02-0.22-0.05l-33.61-16.26c-3.56-1.72-5.22-5.95-3.78-9.63l3.09-7.9
			c0.1-0.26,0.39-0.38,0.65-0.28c0.26,0.1,0.38,0.39,0.28,0.65l-3.09,7.9c-1.25,3.2,0.19,6.87,3.28,8.37l33.42,16.17l34.98-14.04
			c0.26-0.1,0.55,0.02,0.65,0.28s-0.02,0.55-0.28,0.65l-35.19,14.13C232.33,375.81,232.27,375.82,232.2,375.82z"></path><path d="M157.47,235.15c-0.09,0-0.19-0.03-0.27-0.08c-0.14-0.09-0.22-0.23-0.23-0.4l-0.6-11.2L96.6,174.69
			c-0.14-0.11-0.2-0.29-0.18-0.46s0.14-0.32,0.3-0.39l255.45-105.2c0.17-0.07,0.36-0.04,0.5,0.07l59.94,47.09
			c0.12,0.09,0.19,0.23,0.19,0.38l0.41,12.23c0.01,0.21-0.12,0.4-0.31,0.48L157.66,235.11C157.6,235.14,157.54,235.15,157.47,235.15
			z M97.89,174.45l59.29,48.4c0.11,0.09,0.18,0.22,0.18,0.36l0.57,10.71l254.28-105.81l-0.39-11.65L352.3,69.68L97.89,174.45z"></path><path d="M157.88,223.33c-0.2,0-0.38-0.12-0.46-0.31c-0.11-0.25,0.01-0.55,0.27-0.65l252.6-105.2c0.25-0.1,0.55,0.01,0.65,0.27
			c0.11,0.25-0.01,0.55-0.27,0.65l-252.6,105.2C158.01,223.32,157.94,223.33,157.88,223.33z"></path><path d="M113.09,296.96c-0.1,0-0.19-0.03-0.28-0.08c-0.14-0.09-0.22-0.25-0.22-0.42V187.81c0-0.28,0.22-0.5,0.5-0.5
			s0.5,0.22,0.5,0.5v107.9l223.54-92.56v-43.44c0-0.28,0.22-0.5,0.5-0.5s0.5,0.22,0.5,0.5v43.77c0,0.2-0.12,0.38-0.31,0.46
			l-224.54,92.97C113.22,296.94,113.16,296.96,113.09,296.96z"></path><path d="M117.39,272.52c-0.1,0-0.2-0.03-0.28-0.09c-0.14-0.09-0.22-0.25-0.22-0.41v-80.47c0-0.28,0.22-0.5,0.5-0.5
			s0.5,0.22,0.5,0.5v79.73l57.67-23.23v-20.75c0-0.28,0.22-0.5,0.5-0.5s0.5,0.22,0.5,0.5v21.08c0,0.2-0.12,0.39-0.31,0.46
			l-58.67,23.63C117.52,272.51,117.46,272.52,117.39,272.52z"></path><path d="M133.89,250.11c-0.1,0-0.2-0.03-0.28-0.09c-0.14-0.09-0.22-0.25-0.22-0.41v-37.99c0-0.28,0.22-0.5,0.5-0.5
			s0.5,0.22,0.5,0.5v37.26l24.26-9.59v-4.75c0-0.28,0.22-0.5,0.5-0.5s0.5,0.22,0.5,0.5v5.09c0,0.21-0.13,0.39-0.32,0.46l-25.26,9.98
			C134.02,250.1,133.96,250.11,133.89,250.11z"></path><path d="M130.33,224.24c-0.06,0-0.13-0.01-0.19-0.04l-9.88-3.97c-0.24-0.09-0.36-0.35-0.3-0.6l5.81-20.88
			c0.07-0.27,0.35-0.42,0.62-0.35c0.27,0.07,0.42,0.35,0.35,0.62l-5.69,20.45l9.01,3.62l3.07-7.39c0.11-0.26,0.4-0.38,0.65-0.27
			c0.25,0.11,0.38,0.4,0.27,0.65l-3.26,7.84C130.71,224.13,130.53,224.24,130.33,224.24z"></path><path d="M184.65,237.59c-0.18,0-0.35-0.1-0.44-0.26c-0.13-0.24-0.04-0.55,0.21-0.68l12.95-6.92c1.19-0.64,2.69-1.42,4.29-1.29
			c0.97,0.09,1.92,0.64,2.48,1.44c0.27,0.38,0.42,0.8,0.46,1.22c3.96-1.12,7.67-3.2,11.25-5.22c3.91-2.2,7.96-4.47,12.4-5.55
			c0.87-0.21,1.77-0.38,2.63-0.54c1.3-0.24,2.65-0.49,3.91-0.9c1.84-0.59,3.6-1.55,5.31-2.47c1.92-1.04,3.9-2.11,6.06-2.72
			c1.52-0.43,3.1-0.61,4.62-0.78c1.1-0.13,2.23-0.26,3.32-0.48c3.47-0.7,6.74-2.37,9.91-3.97c3.62-1.84,7.36-3.74,11.46-4.26
			c0.27-0.03,0.52,0.16,0.56,0.43c0.04,0.27-0.16,0.52-0.43,0.56c-3.93,0.5-7.59,2.36-11.13,4.16c-3.23,1.64-6.56,3.33-10.17,4.06
			c-1.13,0.23-2.28,0.36-3.4,0.49c-1.49,0.17-3.02,0.35-4.47,0.75c-2.05,0.57-3.98,1.62-5.85,2.63c-1.74,0.94-3.55,1.92-5.48,2.54
			c-1.32,0.43-2.7,0.68-4.03,0.93c-0.85,0.16-1.73,0.32-2.58,0.53c-4.31,1.05-8.29,3.29-12.15,5.45c-3.85,2.16-7.82,4.39-12.17,5.49
			c-0.17,0.04-0.36-0.01-0.48-0.13c-0.12-0.13-0.17-0.31-0.13-0.48c0.13-0.49-0.06-0.92-0.25-1.19c-0.39-0.56-1.07-0.96-1.74-1.02
			c-1.31-0.12-2.65,0.6-3.73,1.17l-12.95,6.92C184.81,237.57,184.73,237.59,184.65,237.59z"></path><path d="M193.01,244.74c-0.18,0-0.35-0.09-0.44-0.26c-0.13-0.24-0.04-0.55,0.2-0.68c6.1-3.36,12.48-6.36,18.95-8.91
			c0.89-0.35,1.92-0.69,2.87-0.25c0.55,0.26,0.92,0.71,1.25,1.12c0.21,0.26,0.4,0.5,0.62,0.68c1.4,1.13,3.55-0.13,5.27-1.35
			c6.79-4.82,14.86-7.09,22.66-9.28l23.51-6.6c0.27-0.07,0.54,0.08,0.62,0.35c0.07,0.27-0.08,0.54-0.35,0.62l-23.51,6.6
			c-7.72,2.17-15.7,4.41-22.35,9.13c-2.01,1.43-4.56,2.86-6.47,1.31c-0.31-0.25-0.54-0.54-0.77-0.83c-0.28-0.35-0.55-0.68-0.89-0.84
			c-0.59-0.27-1.35-0.02-2.08,0.27c-6.44,2.54-12.78,5.52-18.84,8.86C193.17,244.72,193.09,244.74,193.01,244.74z"></path><path d="M124.01,285.98c-0.25,0-0.46-0.18-0.49-0.43c-0.04-0.27,0.15-0.53,0.42-0.57c1.44-0.21,2.93-0.42,4.22-1.06
			c1.37-0.68,2.31-1.8,2.5-2.99c0.07-0.45,0.03-0.87-0.11-1.21c-0.41-0.97-1.65-1.36-2.66-1.39c-0.53-0.02-1.06,0.02-1.62,0.07
			c-0.7,0.06-1.42,0.12-2.15,0.05c-0.76-0.08-1.32-0.31-1.7-0.71c-0.52-0.55-0.67-1.43-0.38-2.24c0.25-0.71,0.74-1.24,1.19-1.68
			c1.21-1.17,2.49-1.92,3.8-2.22c1.62-0.38,3.26-0.02,4.38,0.95c0.21,0.18,0.23,0.5,0.05,0.71c-0.18,0.21-0.5,0.23-0.71,0.05
			c-0.87-0.75-2.21-1.03-3.51-0.73c-1.13,0.26-2.25,0.92-3.33,1.96c-0.37,0.35-0.76,0.78-0.94,1.29c-0.13,0.38-0.13,0.91,0.16,1.22
			c0.21,0.22,0.56,0.35,1.07,0.4c0.64,0.06,1.28,0.01,1.97-0.05c0.56-0.05,1.15-0.09,1.74-0.07c1.32,0.05,2.95,0.6,3.55,2
			c0.22,0.52,0.28,1.13,0.18,1.77c-0.25,1.52-1.39,2.91-3.05,3.73c-1.44,0.71-3.08,0.94-4.53,1.15
			C124.06,285.98,124.03,285.98,124.01,285.98z"></path><path d="M127.4,287.53c-0.27,0-0.49-0.22-0.5-0.49l-0.41-16.14c-0.01-0.28,0.21-0.51,0.49-0.51c0,0,0.01,0,0.01,0
			c0.27,0,0.49,0.22,0.5,0.49l0.41,16.14c0.01,0.28-0.21,0.51-0.49,0.51C127.4,287.53,127.4,287.53,127.4,287.53z"></path><path d="M138.89,279.67c-0.55,0-1.1-0.06-1.64-0.17c-0.27-0.06-0.44-0.32-0.39-0.59c0.06-0.27,0.32-0.45,0.59-0.39
			c2.01,0.42,4.19-0.08,5.82-1.33c0.43-0.33,0.69-0.61,0.84-0.92c0.34-0.67,0.16-1.6-0.43-2.21c-0.55-0.57-1.44-0.88-2.38-0.83
			c-0.24,0.01-0.48,0.04-0.72,0.07c-0.79,0.1-1.69,0.21-2.47-0.28c-0.67-0.42-1.08-1.25-1.06-2.11c0.02-0.9,0.47-1.62,0.83-2.07
			c1.34-1.66,3.8-2.2,5.71-1.27c0.25,0.12,0.35,0.42,0.23,0.67c-0.12,0.25-0.42,0.35-0.67,0.23c-1.48-0.72-3.46-0.28-4.5,1
			c-0.38,0.47-0.6,0.99-0.61,1.47c-0.01,0.52,0.22,1,0.59,1.24c0.47,0.3,1.13,0.22,1.81,0.13c0.27-0.03,0.53-0.06,0.8-0.08
			c1.23-0.06,2.38,0.35,3.14,1.13c0.89,0.92,1.14,2.3,0.61,3.35c-0.29,0.58-0.78,1-1.12,1.26
			C142.47,279.08,140.68,279.67,138.89,279.67z"></path><path d="M141.12,282.15c-0.27,0-0.49-0.21-0.5-0.48l-0.76-16c-0.01-0.28,0.2-0.51,0.48-0.52c0.27-0.04,0.51,0.2,0.52,0.48l0.76,16
			c0.01,0.28-0.2,0.51-0.48,0.52C141.14,282.15,141.13,282.15,141.12,282.15z"></path><path class="st1" d="M310.82,204.76c-0.21,0-0.41-0.14-0.48-0.35c-0.08-0.26,0.06-0.54,0.32-0.63l6.45-2.07l-3.4-9.67
			c-0.04-0.13-0.04-0.26,0.02-0.38s0.16-0.21,0.29-0.26l4.8-1.66c0.26-0.09,0.55,0.05,0.64,0.31c0.09,0.26-0.05,0.55-0.31,0.64
			l-4.33,1.5l3.4,9.68c0.04,0.13,0.04,0.27-0.02,0.39c-0.06,0.12-0.17,0.21-0.29,0.25l-6.94,2.22
			C310.92,204.75,310.87,204.76,310.82,204.76z"></path><path class="st1" d="M310.21,202.16c-0.1,0-0.2-0.03-0.29-0.09l-5.26-3.75c-0.15-0.11-0.23-0.28-0.21-0.47
			c0.02-0.18,0.14-0.34,0.31-0.4l9.62-3.87c0.25-0.1,0.55,0.02,0.65,0.28c0.1,0.26-0.02,0.55-0.28,0.65l-8.77,3.53l4.29,3.06
			l5.85-2.49c0.25-0.11,0.55,0.01,0.66,0.26c0.11,0.25-0.01,0.55-0.26,0.66l-6.11,2.6C310.35,202.14,310.28,202.16,310.21,202.16z"></path><path class="st0" d="M175.7,226.2c-0.55,0-1-0.45-1-1v-9.55l-58.6-46.48c-0.43-0.34-0.5-0.97-0.16-1.41
			c0.34-0.43,0.97-0.5,1.41-0.16l58.98,46.78c0.24,0.19,0.38,0.48,0.38,0.78v10.03C176.7,225.75,176.25,226.2,175.7,226.2z"></path><path class="st0" d="M194.45,218.45c-0.55,0-1-0.45-1-1v-9.55l-58.6-46.48c-0.43-0.34-0.5-0.97-0.16-1.41
			c0.34-0.43,0.97-0.5,1.41-0.16l58.98,46.78c0.24,0.19,0.38,0.48,0.38,0.78v10.03C195.45,218,195,218.45,194.45,218.45z"></path><path class="st0" d="M213.7,210.7c-0.55,0-1-0.45-1-1v-9.55l-58.6-46.48c-0.43-0.34-0.5-0.97-0.16-1.41
			c0.34-0.43,0.97-0.5,1.41-0.16l58.98,46.78c0.24,0.19,0.38,0.48,0.38,0.78v10.03C214.7,210.25,214.25,210.7,213.7,210.7z"></path><path class="st0" d="M231.95,202.95c-0.55,0-1-0.45-1-1v-9.55l-58.6-46.48c-0.43-0.34-0.5-0.97-0.16-1.41
			c0.34-0.43,0.97-0.5,1.41-0.16l58.98,46.78c0.24,0.19,0.38,0.48,0.38,0.78v10.03C232.95,202.5,232.5,202.95,231.95,202.95z"></path><path class="st0" d="M251.45,194.7c-0.55,0-1-0.45-1-1v-9.55l-58.6-46.48c-0.43-0.34-0.5-0.97-0.16-1.41
			c0.34-0.43,0.97-0.5,1.41-0.16l58.98,46.78c0.24,0.19,0.38,0.48,0.38,0.78v10.03C252.45,194.25,252,194.7,251.45,194.7z"></path><path class="st0" d="M269.95,187.2c-0.55,0-1-0.45-1-1v-9.55l-58.6-46.48c-0.43-0.34-0.5-0.97-0.16-1.41
			c0.34-0.43,0.97-0.5,1.41-0.16l58.98,46.78c0.24,0.19,0.38,0.48,0.38,0.78v10.03C270.95,186.75,270.5,187.2,269.95,187.2z"></path><path class="st0" d="M288.95,178.95c-0.55,0-1-0.45-1-1v-9.55l-58.6-46.48c-0.43-0.34-0.5-0.97-0.16-1.41
			c0.35-0.43,0.97-0.5,1.41-0.16l58.98,46.78c0.24,0.19,0.38,0.48,0.38,0.78v10.03C289.95,178.5,289.5,178.95,288.95,178.95z"></path><path class="st0" d="M307.7,171.23c-0.55,0-1-0.45-1-1v-9.55l-58.6-46.48c-0.43-0.34-0.5-0.97-0.16-1.41
			c0.34-0.43,0.97-0.5,1.41-0.16l58.98,46.78c0.24,0.19,0.38,0.48,0.38,0.78v10.03C308.7,170.78,308.25,171.23,307.7,171.23z"></path><path class="st0" d="M326.95,163.48c-0.55,0-1-0.45-1-1v-9.55l-58.6-46.48c-0.43-0.34-0.51-0.97-0.16-1.41
			c0.34-0.43,0.97-0.51,1.4-0.16l58.98,46.78c0.24,0.19,0.38,0.48,0.38,0.78v10.03C327.95,163.03,327.5,163.48,326.95,163.48z"></path><path class="st0" d="M345.2,155.73c-0.55,0-1-0.45-1-1v-9.55L285.6,98.7c-0.43-0.34-0.51-0.97-0.16-1.41
			c0.34-0.43,0.97-0.5,1.4-0.16l58.98,46.78c0.24,0.19,0.38,0.48,0.38,0.78v10.03C346.2,155.28,345.75,155.73,345.2,155.73z"></path><path class="st0" d="M364.7,147.73c-0.55,0-1-0.45-1-1v-9.55L305.1,90.7c-0.43-0.34-0.51-0.97-0.16-1.41
			c0.34-0.43,0.97-0.5,1.4-0.16l58.98,46.78c0.24,0.19,0.38,0.48,0.38,0.78v10.03C365.7,147.28,365.25,147.73,364.7,147.73z"></path><path class="st0" d="M383.7,139.98c-0.55,0-1-0.45-1-1v-9.55l-58.6-46.48c-0.43-0.34-0.51-0.97-0.16-1.41
			c0.34-0.43,0.97-0.5,1.4-0.16l58.98,46.78c0.24,0.19,0.38,0.48,0.38,0.78v10.03C384.7,139.53,384.25,139.98,383.7,139.98z"></path><path class="st0" d="M402.7,131.98c-0.55,0-1-0.45-1-1v-9.55l-58.6-46.48c-0.43-0.34-0.51-0.97-0.16-1.41
			c0.34-0.43,0.97-0.5,1.4-0.16l58.98,46.78c0.24,0.19,0.38,0.48,0.38,0.78v10.03C403.7,131.53,403.25,131.98,402.7,131.98z"></path></g></g><g id="item-1"><polygon class="st2" points="179.64,446.48 222.47,428.83 199.1,363.82 155.44,381.19 	"></polygon><polygon points="155.44,381.19 147.21,437.97 172.53,427.79 	"></polygon><path d="M179.64,446.98c-0.07,0-0.14-0.01-0.2-0.04c-0.12-0.05-0.22-0.16-0.27-0.28l-24.21-65.29c-0.09-0.25,0.03-0.54,0.28-0.64
		l43.67-17.37c0.13-0.05,0.27-0.05,0.39,0.01c0.12,0.06,0.22,0.16,0.27,0.29l23.37,65.01c0.09,0.25-0.03,0.53-0.28,0.63
		l-42.83,17.65C179.77,446.97,179.71,446.98,179.64,446.98z M156.08,381.47l23.86,64.35l41.91-17.27l-23.03-64.08L156.08,381.47z"></path><path d="M147.21,438.47c-0.11,0-0.22-0.04-0.31-0.11c-0.14-0.11-0.21-0.29-0.19-0.46l8.23-56.78c0.04-0.27,0.29-0.46,0.57-0.42
		c0.27,0.04,0.46,0.29,0.42,0.57l-8.11,55.92l24.52-9.86c0.25-0.1,0.55,0.02,0.65,0.28c0.1,0.26-0.02,0.55-0.28,0.65l-25.32,10.18
		C147.33,438.46,147.27,438.47,147.21,438.47z"></path><path d="M174.53,381.14c-0.58,0-1.14-0.34-1.38-0.91c-0.33-0.76,0.03-1.64,0.79-1.97l10.5-4.49c0.76-0.32,1.64,0.03,1.97,0.79
		c0.33,0.76-0.03,1.64-0.79,1.97l-10.5,4.49C174.93,381.1,174.73,381.14,174.53,381.14z"></path><path d="M185.9,430.12c-0.1,0-0.2-0.01-0.3-0.03c-0.81-0.16-1.34-0.95-1.18-1.77L193.3,384c0.16-0.81,0.96-1.34,1.77-1.18
		c0.81,0.16,1.34,0.95,1.18,1.77l-8.88,44.33C187.22,429.63,186.6,430.12,185.9,430.12z"></path><path d="M180.03,408.83c-3.93,0-7-4.61-7-10.5s3.07-10.5,7-10.5s7,4.61,7,10.5S183.96,408.83,180.03,408.83z M180.03,390.83
		c-1.89,0-4,3.08-4,7.5s2.11,7.5,4,7.5s4-3.08,4-7.5S181.92,390.83,180.03,390.83z"></path><path d="M201.78,424.08c-3.93,0-7-4.61-7-10.5s3.07-10.5,7-10.5s7,4.61,7,10.5S205.71,424.08,201.78,424.08z M201.78,406.08
		c-1.89,0-4,3.08-4,7.5s2.11,7.5,4,7.5s4-3.08,4-7.5S203.67,406.08,201.78,406.08z"></path></g><g id="item-2"><path class="st4" d="M302.04,324.61c0,0,7.38,35.3,7.83,35.68c1.16,2.67,3.4,4.78,5.96,6.16c2.56,1.38,5.45,2.06,8.34,2.4
		c5.4,0.63,10.95,0.08,16.09-1.68c3.79-1.29,7.47-3.34,9.8-6.6l3.91-39.64"></path><path d="M346.04,316.97c4.78,0.82,7.8,2.2,7.92,3.96c0.25,3.51-11.17,7.18-25.51,8.2s-26.16-1-26.41-4.51
		c-0.11-1.5,1.92-3.03,5.39-4.37"></path><path class="st2" d="M311.5,328.6c-2.85-11.49-8.99-22.14-17.5-30.37c0.45-0.22,0.98-0.03,1.43,0.17
		c8.58,3.79,16.3,9.48,22.46,16.55c-2.45-10.35-5.82-20.47-9.84-30.31c0.58,0.04,0.99,0.54,1.41,0.93c0.75,0.69,1.7,1.13,2.59,1.63
		c3.72,2.05,6.77,5.17,9.25,8.62c2.48,3.45,4.44,7.24,6.52,11.08c0.17-9.7,1.8-19.37,4.82-28.58c0.54,5.83,1.08,11.67,1.62,17.5
		c0.29,3.17,0.59,6.33,0.88,9.5c0.16,1.72,0.33,3.48,1.09,5.03c0.13-3.05,1.25-5.95,2.4-8.77c2.56-6.27,5.4-12.55,9.89-17.62
		c-1.66,8.72-3.19,17.49-3.86,26.35c-0.41,5.34-0.49,10.79,0.97,15.94c0,0-5.28,1.59-5.73,1.59
		C330.71,329.42,321.32,329.75,311.5,328.6z"></path><path d="M328.48,369.59c-1.46,0-2.92-0.08-4.37-0.25c-3.39-0.4-6.18-1.2-8.52-2.45c-2.86-1.53-5.05-3.8-6.18-6.4l0.02-0.01
		c-0.33-0.83-1.57-5.58-7.88-35.76c-0.06-0.27,0.12-0.54,0.39-0.59c0.27-0.06,0.54,0.12,0.59,0.39c2.85,13.64,7.25,34.25,7.76,35.51
		c0.01,0.02,0.03,0.05,0.04,0.07c1.04,2.39,3.08,4.49,5.74,5.92c2.23,1.19,4.9,1.96,8.16,2.34c5.38,0.63,10.86,0.05,15.87-1.66
		c4.31-1.47,7.49-3.59,9.47-6.31l3.89-39.51c0.03-0.28,0.28-0.47,0.55-0.45c0.28,0.03,0.48,0.27,0.45,0.55l-3.91,39.64
		c-0.01,0.09-0.04,0.17-0.09,0.24c-2.1,2.94-5.48,5.22-10.04,6.78C336.63,368.93,332.57,369.59,328.48,369.59z"></path><path d="M321.2,329.89c-10.28,0-19.41-1.63-19.67-5.24c-0.12-1.72,1.8-3.36,5.71-4.87c0.26-0.1,0.55,0.03,0.65,0.29
		c0.1,0.26-0.03,0.55-0.29,0.65c-3.31,1.28-5.16,2.69-5.07,3.87c0.2,2.77,10.88,5.11,25.88,4.05c15-1.07,25.24-4.9,25.04-7.67
		c-0.1-1.4-2.91-2.71-7.51-3.5c-0.27-0.05-0.46-0.3-0.41-0.58c0.05-0.27,0.31-0.45,0.58-0.41c3.71,0.63,8.16,1.91,8.34,4.41
		c0.32,4.45-13.15,7.83-25.97,8.74C326.06,329.8,323.6,329.89,321.2,329.89z"></path><path d="M311.18,328.8c-0.23,0-0.43-0.16-0.49-0.39c-2.76-11.7-9.33-22.67-18.52-30.89c-0.18-0.16-0.22-0.44-0.09-0.64
		c0.13-0.21,0.4-0.29,0.62-0.19c8.84,3.85,17.06,9.54,23.77,16.46c0.19,0.2,0.19,0.51-0.01,0.71c-0.2,0.19-0.51,0.19-0.71-0.01
		c-5.91-6.1-13.01-11.23-20.67-14.96c8.16,8.08,14.01,18.37,16.58,29.29c0.06,0.27-0.1,0.54-0.37,0.6
		C311.26,328.8,311.22,328.8,311.18,328.8z"></path><path d="M320.39,329.32c-0.25,0-0.47-0.19-0.5-0.44c-1.09-9.6-3.21-19.09-6.33-28.23c-1.85-5.43-4.08-10.82-6.23-16.03
		c-0.08-0.19-0.03-0.42,0.12-0.56s0.38-0.17,0.57-0.07c8.36,4.37,15.01,11.54,18.72,20.21c0.11,0.25-0.01,0.55-0.26,0.66
		c-0.25,0.11-0.55-0.01-0.66-0.26c-3.44-8.03-9.46-14.74-17.03-19.05c1.99,4.82,4.01,9.78,5.71,14.79
		c3.13,9.21,5.28,18.78,6.37,28.44c0.03,0.27-0.17,0.52-0.44,0.55C320.43,329.32,320.41,329.32,320.39,329.32z"></path><path d="M329.06,329.45c-0.24,0-0.46-0.18-0.49-0.43c-2.5-17.3-1.24-35.31,3.64-52.09c0.07-0.23,0.29-0.38,0.53-0.36
		c0.24,0.02,0.43,0.22,0.45,0.46c0.75,9.07,1.53,18.34,2.59,27.43c0.87,7.45,2,15.31,5.23,22.45c0.11,0.25,0,0.55-0.25,0.66
		c-0.25,0.11-0.55,0-0.66-0.25c-3.29-7.26-4.43-15.22-5.31-22.74c-0.96-8.2-1.68-16.54-2.36-24.68
		c-4.21,15.87-5.21,32.75-2.86,48.99c0.04,0.27-0.15,0.53-0.42,0.57C329.11,329.45,329.08,329.45,329.06,329.45z"></path><path d="M345.46,326.26c-0.23,0-0.44-0.16-0.49-0.39c-0.9-4.12-0.89-8.32-0.76-12.25c0.33-9.47,1.56-18.94,3.64-28.18
		c-5.16,7.5-8.96,16.06-11.05,24.9c-0.06,0.27-0.33,0.44-0.6,0.37c-0.27-0.06-0.43-0.33-0.37-0.6c2.31-9.79,6.7-19.23,12.69-27.31
		c0.14-0.19,0.4-0.25,0.61-0.16c0.22,0.1,0.33,0.34,0.27,0.57c-2.42,9.96-3.82,20.21-4.18,30.45c-0.14,3.86-0.14,7.99,0.73,12
		c0.06,0.27-0.11,0.54-0.38,0.59C345.53,326.25,345.49,326.26,345.46,326.26z"></path></g></svg>