<svg transform="scale(1)" version="1.1" id="u9qDPj3OvJ" xmlns="http://www.w3.org/2000/svg" xmlns:xlink="http://www.w3.org/1999/xlink" x="0px" y="0px" width="500px" height="500px" viewBox="0 0 500 500" xml:space="preserve" class="pbimage_pbimage__wrapper__image__0LEis false"><title>Landing Page</title><style type="text/css"> .st0{fill:#000001;} .st1{fill:#FFDC32;} .st2{fill:#FFB0CC;} .st3{fill:#005596;} .st4{fill:#FFFFFF;}
 .st4{fill:#FFFFFF;}
 .st3{fill:#7C3AED;}
 .st2{fill:#9000ff;}
 .st1{fill:#7C3AED;}
 .st0{fill:#000001;}</style><g id="page-2"><g id="shadow"><path class="st0" d="M375.75,77.64c0,0,13.54,0,13.57,0.71c3.78,4.97,3.96,11.86,2.57,17.95c-1.39,6.09-4.15,11.78-5.77,17.82
			c-2.02,7.55-2.2,15.58-0.51,23.21c2.46,11.14,8.81,21.49,8.84,33.44c4.19,17.64-10.07,34.68-10.13,52.81
			c-0.04,11.96,6.08,22.95,9.59,34.38c3.93,12.79,4.62,26.57,1.98,39.69c-2.49,12.35-7.88,24.29-7.63,36.89
			c0.22,10.77,4.58,21.25,3.91,31.99c-0.45,7.15-3.12,14.05-3.32,21.21c-0.34,11.8,1.19,34.94,1.19,34.94h-14.5L375.75,77.64z"></path><path class="st0" d="M124.3,77.64c0,0-13.54,0-13.57,0.71c-3.78,4.97-3.96,11.86-2.57,17.95s4.15,11.78,5.76,17.82
			c2.02,7.55,2.2,15.58,0.51,23.21c-2.46,11.14-8.81,21.49-8.84,33.44c-4.19,17.64,10.07,34.68,10.13,52.81
			c0.04,11.96-6.08,22.95-9.59,34.38c-3.93,12.79-4.62,26.57-1.98,39.69c2.49,12.35,7.88,24.29,7.63,36.89
			c-0.22,10.77-4.58,21.25-3.91,31.99c0.45,7.15,3.12,14.05,3.32,21.21c0.34,11.8-1.19,34.94-1.19,34.94h14.5L124.3,77.64z"></path></g><g id="line_1_"><path class="st0" d="M460.5,423h-85c-0.28,0-0.5-0.22-0.5-0.5v-345c0-0.28,0.22-0.5,0.5-0.5h85c0.28,0,0.5,0.22,0.5,0.5v345
			C461,422.78,460.78,423,460.5,423z M376,422h84V78h-84V422z"></path><path class="st0" d="M124.5,423h-85c-0.28,0-0.5-0.22-0.5-0.5v-345c0-0.28,0.22-0.5,0.5-0.5h85c0.28,0,0.5,0.22,0.5,0.5v345
			C125,422.78,124.78,423,124.5,423z M40,422h84V78H40V422z"></path></g></g><g id="page-1"><g id="colors"><rect class="st1" x="124.5" y="267.5" width="251" height="180"></rect><path class="st1" d="M306.61,130.92c-6.9,5.69-13.4,11.87-19.42,18.48c-1.73,1.9-3.45,3.88-4.5,6.23
			c-1.05,2.35-1.36,5.16-0.24,7.48c1.55,3.22,5.33,4.67,8.84,5.33c6.07,1.14,12.41,0.8,18.32-1c2.37-0.72,4.77-1.74,6.36-3.64
			c1.74-2.07,2.31-4.95,4.11-6.97c3.13-3.49,8.55-3.17,13.24-3.22c3.69-0.04,7.38-0.48,10.97-1.31c2.53-0.59,5.07-1.39,7.17-2.92
			s3.73-3.88,3.86-6.48c0.17-3.43-2.28-6.5-5.14-8.4c-2.73-1.81-6.25-3.28-7.06-6.45c-0.5-1.97,0.25-4.01,0.66-6
			c0.91-4.4,0.07-9.14-2.3-12.97c-2.37-3.82-6.23-6.69-10.58-7.85c-3.2-0.85-6.58-0.79-9.85-0.29c-5.13,0.8-10.1,2.69-14.45,5.53
			c-2.14,1.39-4.37,3.7-3.6,6.13c0.65,2.05,3.04,2.87,4.76,4.16c2.08,1.56,3.35,4.14,3.31,6.74S309.57,128.48,306.61,130.92z"></path><path class="st2" d="M289.61,135.92c-6.9,5.69-13.4,11.87-19.42,18.48c-1.73,1.9-3.45,3.88-4.5,6.23
			c-1.05,2.35-1.36,5.16-0.24,7.48c1.55,3.22,5.33,4.67,8.84,5.33c6.07,1.14,12.41,0.8,18.32-1c2.37-0.72,4.77-1.74,6.36-3.64
			c1.74-2.07,2.31-4.95,4.11-6.97c3.13-3.49,8.55-3.17,13.24-3.22c3.69-0.04,7.38-0.48,10.97-1.31c2.53-0.59,5.07-1.39,7.17-2.92
			s3.73-3.88,3.86-6.48c0.17-3.43-2.28-6.5-5.14-8.4c-2.73-1.81-6.25-3.28-7.06-6.45c-0.5-1.97,0.25-4.01,0.66-6
			c0.91-4.4,0.07-9.14-2.3-12.97c-2.37-3.82-6.23-6.69-10.58-7.85c-3.2-0.85-6.58-0.79-9.85-0.29c-5.13,0.8-10.1,2.69-14.45,5.53
			c-2.14,1.39-4.37,3.7-3.6,6.13c0.65,2.05,3.04,2.87,4.76,4.16c2.08,1.56,3.35,4.14,3.31,6.74
			C294.05,131.11,292.57,133.48,289.61,135.92z"></path><path class="st3" d="M300.35,140.91c-6.9,5.69-13.4,11.87-19.42,18.48c-1.73,1.9-3.45,3.88-4.5,6.23
			c-1.05,2.35-1.36,5.16-0.24,7.48c1.55,3.22,5.33,4.67,8.84,5.33c6.07,1.14,12.41,0.8,18.32-1c2.37-0.72,4.77-1.74,6.36-3.64
			c1.74-2.07,2.31-4.95,4.11-6.97c3.13-3.49,8.55-3.17,13.24-3.22c3.69-0.04,7.38-0.48,10.97-1.31c2.53-0.59,5.07-1.39,7.17-2.92
			s3.73-3.88,3.86-6.48c0.17-3.43-2.28-6.5-5.14-8.4c-2.73-1.81-6.25-3.28-7.06-6.45c-0.5-1.97,0.25-4.01,0.66-6
			c0.91-4.4,0.07-9.14-2.3-12.97c-2.37-3.82-6.23-6.69-10.58-7.85c-3.2-0.85-6.58-0.79-9.85-0.29c-5.13,0.8-10.1,2.69-14.45,5.53
			c-2.14,1.39-4.37,3.7-3.6,6.13c0.65,2.05,3.04,2.87,4.76,4.16c2.08,1.56,3.35,4.14,3.31,6.74
			C304.78,136.1,303.31,138.47,300.35,140.91z"></path><circle class="st2" cx="149.84" cy="73.39" r="9.88"></circle><rect class="st3" x="143.46" y="280.62" width="99" height="53.5"></rect><rect class="st3" x="264.75" y="280.62" width="99" height="53.5"></rect><rect class="st3" x="143.46" y="349.62" width="99" height="53.5"></rect><rect class="st3" x="264.75" y="349.62" width="99" height="53.5"></rect><rect class="st2" x="261.04" y="277.12" width="99" height="53.5"></rect><rect class="st4" x="261.04" y="344.62" width="99" height="53.5"></rect><rect class="st2" x="139.96" y="277.12" width="99" height="53.5"></rect><rect class="st4" x="139.96" y="344.62" width="99" height="53.5"></rect><path class="st3" d="M165.46,73.39L165.46,73.39c0-2.76,2.24-5,5-5h48.5c2.76,0,5,2.24,5,5l0,0c0,2.76-2.24,5-5,5h-48.5
			C167.7,78.39,165.46,76.15,165.46,73.39z"></path><path class="st1" d="M139.96,215.89L139.96,215.89c0-2.76,2.24-5,5-5h48.5c2.76,0,5,2.24,5,5l0,0c0,2.76-2.24,5-5,5h-48.5
			C142.2,220.89,139.96,218.65,139.96,215.89z"></path><path class="st1" d="M301.54,215.89L301.54,215.89c0-2.76,2.24-5,5-5h48.5c2.76,0,5,2.24,5,5l0,0c0,2.76-2.24,5-5,5h-48.5
			C303.78,220.89,301.54,218.65,301.54,215.89z"></path><path class="st1" d="M220.75,215.89L220.75,215.89c0-2.76,2.24-5,5-5h48.5c2.76,0,5,2.24,5,5l0,0c0,2.76-2.24,5-5,5h-48.5
			C222.99,220.89,220.75,218.65,220.75,215.89z"></path></g><g id="line"><path class="st0" d="M375.5,448h-251c-0.28,0-0.5-0.22-0.5-0.5v-395c0-0.28,0.22-0.5,0.5-0.5h251c0.28,0,0.5,0.22,0.5,0.5v395
			C376,447.78,375.78,448,375.5,448z M125,447h250V53H125V447z"></path><path class="st0" d="M360.04,66.01h-13.58c-0.28,0-0.5-0.22-0.5-0.5s0.22-0.5,0.5-0.5h13.58c0.28,0,0.5,0.22,0.5,0.5
			S360.32,66.01,360.04,66.01z"></path><path class="st0" d="M360.04,71.26h-13.58c-0.28,0-0.5-0.22-0.5-0.5s0.22-0.5,0.5-0.5h13.58c0.28,0,0.5,0.22,0.5,0.5
			S360.32,71.26,360.04,71.26z"></path><path class="st0" d="M360.04,76.51h-13.58c-0.28,0-0.5-0.22-0.5-0.5s0.22-0.5,0.5-0.5h13.58c0.28,0,0.5,0.22,0.5,0.5
			S360.32,76.51,360.04,76.51z"></path><path class="st0" d="M360.04,81.76h-13.58c-0.28,0-0.5-0.22-0.5-0.5s0.22-0.5,0.5-0.5h13.58c0.28,0,0.5,0.22,0.5,0.5
			S360.32,81.76,360.04,81.76z"></path><path class="st0" d="M227.96,157.76h-88c-0.28,0-0.5-0.22-0.5-0.5s0.22-0.5,0.5-0.5h88c0.28,0,0.5,0.22,0.5,0.5
			S228.24,157.76,227.96,157.76z"></path><path class="st0" d="M217.96,165.26h-78c-0.28,0-0.5-0.22-0.5-0.5s0.22-0.5,0.5-0.5h78c0.28,0,0.5,0.22,0.5,0.5
			S218.24,165.26,217.96,165.26z"></path><path class="st0" d="M237.71,172.76h-97.75c-0.28,0-0.5-0.22-0.5-0.5s0.22-0.5,0.5-0.5h97.75c0.28,0,0.5,0.22,0.5,0.5
			S237.99,172.76,237.71,172.76z"></path><path class="st0" d="M188.84,180.26h-48.88c-0.28,0-0.5-0.22-0.5-0.5s0.22-0.5,0.5-0.5h48.88c0.28,0,0.5,0.22,0.5,0.5
			S189.12,180.26,188.84,180.26z"></path><path class="st0" d="M245.46,244.26h-105.5c-0.28,0-0.5-0.22-0.5-0.5s0.22-0.5,0.5-0.5h105.5c0.28,0,0.5,0.22,0.5,0.5
			S245.74,244.26,245.46,244.26z"></path><path class="st0" d="M227.96,250.5h-88c-0.28,0-0.5-0.22-0.5-0.5s0.22-0.5,0.5-0.5h88c0.28,0,0.5,0.22,0.5,0.5
			S228.24,250.5,227.96,250.5z"></path><path class="st0" d="M264.75,256.74H139.96c-0.28,0-0.5-0.22-0.5-0.5s0.22-0.5,0.5-0.5h124.79c0.28,0,0.5,0.22,0.5,0.5
			S265.03,256.74,264.75,256.74z"></path><path class="st0" d="M237.44,375.34h-96.27c-0.28,0-0.5-0.22-0.5-0.5s0.22-0.5,0.5-0.5h96.27c0.28,0,0.5,0.22,0.5,0.5
			S237.72,375.34,237.44,375.34z"></path><path class="st0" d="M176.91,383.4c-4.72,0-8.56-3.84-8.56-8.56c0-4.72,3.84-8.56,8.56-8.56s8.56,3.84,8.56,8.56
			C185.47,379.56,181.63,383.4,176.91,383.4z M176.91,367.28c-4.17,0-7.56,3.39-7.56,7.56c0,4.17,3.39,7.56,7.56,7.56
			s7.56-3.39,7.56-7.56C184.47,370.67,181.08,367.28,176.91,367.28z"></path><path class="st0" d="M205.46,356.48c-0.1,0-0.21-0.03-0.3-0.1c-0.22-0.17-0.26-0.48-0.1-0.7c0.41-0.54,0.87-1.15,1.55-1.53
			c0.7-0.39,1.72-0.49,2.43,0.13c0.08,0.07,0.15,0.14,0.22,0.22c0.07,0.08,0.15,0.16,0.21,0.2c0.15,0.09,0.42,0.01,0.61-0.12
			c0.17-0.11,0.31-0.25,0.45-0.38c0.14-0.13,0.28-0.26,0.44-0.38c1.11-0.82,2.78-0.75,3.81,0.15c0.21,0.18,0.23,0.5,0.04,0.71
			c-0.18,0.21-0.5,0.23-0.71,0.04c-0.67-0.6-1.82-0.64-2.55-0.1c-0.12,0.09-0.24,0.2-0.35,0.31c-0.18,0.17-0.36,0.34-0.59,0.49
			c-0.57,0.37-1.2,0.42-1.67,0.14c-0.19-0.11-0.32-0.26-0.43-0.38c-0.05-0.05-0.09-0.1-0.14-0.15c-0.33-0.29-0.9-0.23-1.29-0.01
			c-0.49,0.27-0.87,0.77-1.23,1.25C205.76,356.41,205.61,356.48,205.46,356.48z"></path><path class="st0" d="M209.06,358.66c-0.23,0-0.43-0.16-0.49-0.39c-0.06-0.27,0.1-0.54,0.37-0.6l2.93-0.68
			c0.27-0.06,0.54,0.1,0.6,0.37c0.06,0.27-0.1,0.54-0.37,0.6l-2.93,0.68C209.14,358.66,209.1,358.66,209.06,358.66z"></path><path class="st0" d="M161.6,387.21c-0.2,0-0.41-0.02-0.62-0.08c-0.58-0.16-1.21-0.67-1.21-1.41c-0.01-0.36,0.14-0.66,0.32-0.91
			c-1.5,0.41-2.99,0.74-4.46,0.99c-0.74,0.14-1.1-0.12-1.27-0.37c-0.26-0.37-0.16-0.78-0.08-1.04c-1.43,0.92-2.98,1.65-4.62,2.19
			c-0.26,0.09-0.54-0.06-0.63-0.32c-0.09-0.26,0.06-0.54,0.32-0.63c2.04-0.67,3.94-1.66,5.62-2.94c0.18-0.13,0.42-0.14,0.6-0.01
			c0.18,0.13,0.25,0.36,0.18,0.57c-0.1,0.29-0.2,0.58-0.31,0.86l-0.18,0.51c-0.01,0.04-0.05,0.15-0.06,0.23
			c0.03-0.01,0.12-0.01,0.26-0.04c1.91-0.33,3.86-0.79,5.8-1.38c0.18-0.05,0.37,0,0.5,0.12c0.13,0.13,0.18,0.32,0.12,0.5
			c-0.13,0.42-0.42,0.73-0.68,1c-0.27,0.28-0.43,0.47-0.43,0.65c0,0.18,0.21,0.38,0.47,0.46c0.33,0.09,0.73,0.02,1.12-0.05
			c0.27-0.04,0.53,0.13,0.58,0.4c0.05,0.27-0.13,0.53-0.4,0.58C162.24,387.16,161.92,387.21,161.6,387.21z"></path><path class="st0" d="M213.68,390.22c-1.21,0-2.48-0.09-3.77-0.25c-1.24-0.17-1.6-0.73-1.69-1.18c-0.07-0.35,0.03-0.66,0.17-0.92
			c-1.96,0.61-4.05,0.79-6.1,0.52c-0.19-0.03-0.69-0.1-0.91-0.55c-0.1-0.24-0.08-0.45-0.07-0.59l0.03-0.3
			c-1.57,1.48-3.6,2.44-5.78,2.69c-0.28,0.03-0.52-0.17-0.55-0.44c-0.03-0.27,0.17-0.52,0.44-0.55c2.4-0.27,4.7-1.57,6.15-3.48
			c0.14-0.18,0.37-0.24,0.58-0.16c0.21,0.08,0.34,0.29,0.31,0.51l-0.19,1.82c0,0.01,0,0.02,0,0.03c0.03,0.01,0.07,0.01,0.12,0.02
			c2.28,0.3,4.6,0,6.72-0.87c0.15-0.06,0.33-0.05,0.47,0.05c0.14,0.09,0.22,0.25,0.22,0.42c0,0.43-0.22,0.79-0.4,1.07
			c-0.13,0.21-0.26,0.41-0.23,0.54c0.03,0.17,0.36,0.32,0.84,0.38c1.25,0.16,2.48,0.25,3.64,0.25c0.28,0,0.5,0.22,0.5,0.5
			S213.96,390.22,213.68,390.22z"></path><path class="st0" d="M223.9,381.81c-0.04,0-0.08,0-0.11,0c-0.81-0.03-1.69-0.53-1.74-1.41c-0.02-0.35,0.11-0.66,0.24-0.92
			c-0.08,0.03-0.16,0.05-0.25,0.08l-0.33,0.11c-0.78,0.24-1.41,0.21-1.9-0.08c-0.22-0.13-0.4-0.33-0.52-0.57
			c-1.07,0.82-2.27,1.48-3.54,1.94c-0.26,0.09-0.55-0.04-0.64-0.3c-0.09-0.26,0.04-0.55,0.3-0.64c1.48-0.54,2.86-1.37,4.01-2.41
			c0.05-0.05,0.11-0.1,0.17-0.15c0.22-0.15,0.51-0.11,0.68,0.09s0.15,0.5-0.05,0.68c-0.02,0.02-0.05,0.04-0.07,0.06
			c-0.02,0.03-0.02,0.08-0.02,0.1c0.01,0.13,0.08,0.27,0.18,0.33c0.23,0.14,0.61,0.13,1.1-0.02l0.3-0.1
			c0.41-0.14,0.87-0.29,1.36-0.27c0.28,0.01,0.49,0.24,0.48,0.52c-0.01,0.37-0.18,0.68-0.32,0.95c-0.11,0.2-0.21,0.39-0.2,0.53
			c0.01,0.25,0.42,0.46,0.78,0.47c0.23,0.01,0.46-0.02,0.69-0.04c0.34-0.04,0.7-0.08,1.08-0.03c0.27,0.03,0.47,0.28,0.44,0.56
			c-0.03,0.27-0.28,0.48-0.56,0.43c-0.26-0.03-0.54,0-0.84,0.03C224.37,381.79,224.13,381.81,223.9,381.81z"></path><path class="st0" d="M194.08,310.68c-0.13,0-0.26-0.05-0.35-0.15l-22.31-22.41l-29.55,18.24c-0.24,0.14-0.54,0.07-0.69-0.16
			s-0.07-0.54,0.16-0.69l29.89-18.45c0.2-0.12,0.45-0.09,0.62,0.07l22.59,22.69c0.19,0.2,0.19,0.51,0,0.71
			C194.34,310.63,194.21,310.68,194.08,310.68z"></path><path class="st0" d="M229.78,316.99c-0.1,0-0.2-0.03-0.29-0.09l-32.82-22.96l-9.18,8.13c-0.21,0.18-0.52,0.16-0.71-0.04
			c-0.18-0.21-0.16-0.52,0.04-0.71l9.47-8.39c0.17-0.15,0.43-0.17,0.62-0.04l33.14,23.18c0.23,0.16,0.28,0.47,0.12,0.7
			C230.09,316.92,229.94,316.99,229.78,316.99z"></path><path class="st0" d="M226.42,295.66c-2.82,0-5.12-2.3-5.12-5.12s2.3-5.12,5.12-5.12s5.12,2.3,5.12,5.12
			S229.24,295.66,226.42,295.66z M226.42,286.42c-2.27,0-4.12,1.85-4.12,4.12s1.85,4.12,4.12,4.12s4.12-1.85,4.12-4.12
			S228.69,286.42,226.42,286.42z"></path><path class="st0" d="M141.9,320.2c-0.27,0-0.49-0.21-0.5-0.48c-0.01-0.28,0.21-0.51,0.48-0.52c8.34-0.29,16.7-1.96,24.78-3.58
			c7.24-1.44,14.73-2.94,22.21-3.45c1.69-0.12,3.62-0.17,5.21,0.76c0.47,0.27,0.88,0.62,1.28,0.95c0.33,0.27,0.64,0.53,0.97,0.75
			c1.18,0.76,2.72,1,3.95,1.19c3.33,0.52,6.77,1.05,10.17,1.11c2.64,0.05,5.34-0.2,7.95-0.44c2.13-0.19,4.33-0.39,6.51-0.44
			c4.09-0.09,8.2,0.36,12.19,1.34c0.27,0.07,0.43,0.34,0.37,0.6c-0.07,0.27-0.34,0.43-0.6,0.37c-3.91-0.96-7.92-1.41-11.93-1.32
			c-2.15,0.04-4.33,0.24-6.44,0.44c-2.63,0.24-5.35,0.49-8.06,0.44c-3.48-0.06-6.95-0.6-10.31-1.13c-1.33-0.2-2.99-0.46-4.34-1.33
			c-0.39-0.25-0.74-0.54-1.07-0.83c-0.38-0.32-0.74-0.62-1.14-0.85c-1.34-0.79-3.02-0.74-4.63-0.62c-7.42,0.51-14.88,2-22.09,3.44
			c-8.12,1.62-16.52,3.3-24.94,3.59C141.91,320.2,141.91,320.2,141.9,320.2z"></path><path class="st0" d="M358.51,375.34h-96.27c-0.28,0-0.5-0.22-0.5-0.5s0.22-0.5,0.5-0.5h96.27c0.28,0,0.5,0.22,0.5,0.5
			S358.79,375.34,358.51,375.34z"></path><path class="st0" d="M297.99,383.4c-4.72,0-8.56-3.84-8.56-8.56c0-4.72,3.84-8.56,8.56-8.56c4.72,0,8.56,3.84,8.56,8.56
			C306.55,379.56,302.71,383.4,297.99,383.4z M297.99,367.28c-4.17,0-7.56,3.39-7.56,7.56c0,4.17,3.39,7.56,7.56,7.56
			c4.17,0,7.56-3.39,7.56-7.56C305.55,370.67,302.16,367.28,297.99,367.28z"></path><path class="st0" d="M326.54,356.48c-0.11,0-0.21-0.03-0.3-0.1c-0.22-0.17-0.26-0.48-0.1-0.7c0.41-0.54,0.87-1.15,1.55-1.53
			c0.7-0.39,1.72-0.5,2.43,0.13c0.08,0.07,0.15,0.14,0.22,0.22c0.08,0.08,0.15,0.16,0.21,0.2c0.15,0.09,0.42,0.01,0.61-0.12
			c0.17-0.11,0.31-0.25,0.45-0.38c0.14-0.13,0.28-0.26,0.44-0.38c1.11-0.82,2.79-0.75,3.81,0.15c0.21,0.18,0.23,0.5,0.04,0.71
			s-0.5,0.23-0.71,0.04c-0.67-0.6-1.82-0.64-2.55-0.1c-0.12,0.09-0.24,0.2-0.35,0.31c-0.18,0.17-0.37,0.34-0.59,0.49
			c-0.57,0.37-1.2,0.42-1.67,0.14c-0.19-0.11-0.32-0.26-0.43-0.38c-0.05-0.05-0.09-0.1-0.14-0.15c-0.33-0.29-0.9-0.23-1.29-0.01
			c-0.49,0.27-0.87,0.77-1.23,1.25C326.84,356.41,326.69,356.48,326.54,356.48z"></path><path class="st0" d="M330.13,358.66c-0.23,0-0.43-0.16-0.49-0.39c-0.06-0.27,0.1-0.54,0.37-0.6l2.93-0.68
			c0.27-0.07,0.54,0.1,0.6,0.37c0.06,0.27-0.1,0.54-0.37,0.6l-2.93,0.68C330.21,358.66,330.17,358.66,330.13,358.66z"></path><path class="st0" d="M282.67,387.21c-0.2,0-0.41-0.02-0.62-0.08c-0.58-0.16-1.21-0.67-1.21-1.41c0-0.36,0.14-0.66,0.32-0.91
			c-1.5,0.41-2.99,0.74-4.46,0.99c-0.75,0.13-1.11-0.12-1.28-0.37c-0.26-0.37-0.16-0.78-0.08-1.04c-1.43,0.92-2.98,1.65-4.62,2.19
			c-0.26,0.09-0.55-0.06-0.63-0.32c-0.09-0.26,0.06-0.54,0.32-0.63c2.04-0.67,3.94-1.66,5.62-2.94c0.18-0.13,0.42-0.14,0.6-0.01
			c0.18,0.13,0.25,0.36,0.18,0.57c-0.09,0.27-0.19,0.55-0.29,0.82l-0.2,0.56c-0.01,0.04-0.05,0.16-0.07,0.23
			c0.03-0.01,0.12-0.01,0.26-0.04c1.91-0.33,3.86-0.79,5.8-1.38c0.18-0.05,0.37,0,0.5,0.12c0.13,0.13,0.18,0.32,0.12,0.5
			c-0.13,0.42-0.42,0.73-0.68,1c-0.27,0.28-0.43,0.47-0.43,0.65c0,0.18,0.21,0.38,0.47,0.46c0.33,0.09,0.73,0.02,1.12-0.05
			c0.28-0.04,0.53,0.13,0.58,0.4s-0.13,0.53-0.4,0.58C283.31,387.16,283,387.21,282.67,387.21z"></path><path class="st0" d="M334.76,390.22c-1.21,0-2.48-0.09-3.77-0.25c-1.24-0.17-1.6-0.73-1.69-1.18c-0.07-0.35,0.03-0.66,0.17-0.92
			c-1.96,0.61-4.05,0.79-6.1,0.52c-0.19-0.03-0.69-0.1-0.91-0.55c-0.1-0.24-0.08-0.45-0.07-0.59l0.03-0.3
			c-1.57,1.48-3.6,2.44-5.78,2.69c-0.27,0.02-0.52-0.17-0.55-0.44s0.17-0.52,0.44-0.55c2.4-0.27,4.7-1.57,6.15-3.48
			c0.14-0.18,0.37-0.24,0.58-0.16c0.21,0.08,0.34,0.29,0.31,0.51l-0.19,1.82c0,0.01,0,0.02,0,0.03c0.03,0.01,0.07,0.01,0.12,0.02
			c2.28,0.3,4.6,0,6.72-0.87c0.15-0.06,0.33-0.05,0.47,0.05c0.14,0.09,0.22,0.25,0.22,0.42c0,0.43-0.22,0.79-0.4,1.07
			c-0.13,0.21-0.26,0.41-0.23,0.54c0.03,0.17,0.36,0.32,0.84,0.38c1.25,0.16,2.48,0.25,3.64,0.25c0.28,0,0.5,0.22,0.5,0.5
			S335.04,390.22,334.76,390.22z"></path><path class="st0" d="M344.96,381.81c-0.04,0-0.08,0-0.11,0c-0.81-0.03-1.7-0.53-1.74-1.41c-0.02-0.35,0.11-0.66,0.24-0.92
			c-0.08,0.03-0.16,0.05-0.25,0.08l-0.33,0.11c-0.78,0.24-1.41,0.21-1.9-0.08c-0.22-0.13-0.4-0.33-0.52-0.57
			c-1.07,0.82-2.27,1.48-3.54,1.94c-0.25,0.09-0.55-0.04-0.64-0.3c-0.09-0.26,0.04-0.55,0.3-0.64c1.48-0.54,2.86-1.37,4.01-2.41
			c0.05-0.05,0.11-0.1,0.17-0.15c0.21-0.15,0.51-0.11,0.68,0.09c0.17,0.2,0.15,0.5-0.05,0.68c-0.02,0.02-0.04,0.04-0.07,0.06
			c-0.02,0.03-0.02,0.08-0.02,0.1c0.01,0.13,0.08,0.27,0.18,0.33c0.23,0.14,0.6,0.13,1.1-0.02l0.3-0.1c0.41-0.14,0.85-0.3,1.36-0.27
			c0.28,0.01,0.49,0.24,0.48,0.52c-0.01,0.37-0.18,0.68-0.32,0.95c-0.11,0.2-0.21,0.39-0.2,0.53c0.01,0.25,0.42,0.46,0.78,0.47
			c0.22,0.01,0.46-0.02,0.69-0.04c0.34-0.04,0.7-0.08,1.08-0.03c0.27,0.03,0.47,0.28,0.43,0.56c-0.03,0.27-0.28,0.47-0.56,0.43
			c-0.26-0.03-0.54,0-0.84,0.03C345.44,381.79,345.2,381.81,344.96,381.81z"></path><path class="st0" d="M315.15,310.68c-0.13,0-0.26-0.05-0.35-0.15l-22.3-22.41l-29.55,18.24c-0.23,0.14-0.54,0.07-0.69-0.16
			c-0.14-0.24-0.07-0.54,0.16-0.69l29.89-18.45c0.2-0.12,0.45-0.09,0.62,0.07l22.58,22.69c0.19,0.2,0.19,0.51,0,0.71
			C315.41,310.63,315.28,310.68,315.15,310.68z"></path><path class="st0" d="M350.86,316.99c-0.1,0-0.2-0.03-0.29-0.09l-32.82-22.96l-9.17,8.13c-0.21,0.18-0.52,0.17-0.71-0.04
			c-0.18-0.21-0.16-0.52,0.04-0.71l9.47-8.39c0.17-0.15,0.43-0.17,0.62-0.04l33.14,23.18c0.23,0.16,0.28,0.47,0.12,0.7
			C351.17,316.92,351.02,316.99,350.86,316.99z"></path><path class="st0" d="M347.5,295.66c-2.82,0-5.12-2.3-5.12-5.12s2.3-5.12,5.12-5.12s5.12,2.3,5.12,5.12S350.32,295.66,347.5,295.66
			z M347.5,286.42c-2.27,0-4.12,1.85-4.12,4.12s1.85,4.12,4.12,4.12s4.12-1.85,4.12-4.12S349.77,286.42,347.5,286.42z"></path><path class="st0" d="M262.98,320.2c-0.27,0-0.49-0.21-0.5-0.48c-0.01-0.28,0.21-0.51,0.48-0.52c8.34-0.29,16.7-1.96,24.78-3.58
			c7.24-1.44,14.73-2.94,22.21-3.45c1.69-0.12,3.62-0.17,5.21,0.76c0.47,0.27,0.88,0.62,1.27,0.95c0.33,0.28,0.64,0.54,0.97,0.75
			c1.18,0.76,2.72,1,3.95,1.19c3.33,0.52,6.77,1.06,10.17,1.11c2.66,0.05,5.34-0.2,7.95-0.44c2.13-0.19,4.33-0.39,6.51-0.44
			c4.1-0.09,8.2,0.36,12.19,1.34c0.27,0.07,0.43,0.34,0.37,0.6c-0.06,0.27-0.33,0.43-0.6,0.37c-3.91-0.96-7.92-1.41-11.93-1.32
			c-2.15,0.04-4.33,0.24-6.44,0.44c-2.63,0.24-5.37,0.49-8.06,0.44c-3.48-0.06-6.95-0.6-10.31-1.13c-1.33-0.2-2.99-0.46-4.34-1.33
			c-0.39-0.25-0.74-0.54-1.07-0.83c-0.38-0.32-0.74-0.62-1.13-0.85c-1.34-0.79-3.02-0.74-4.63-0.62c-7.42,0.51-14.88,2-22.09,3.44
			c-8.12,1.62-16.52,3.3-24.94,3.59C262.99,320.2,262.99,320.2,262.98,320.2z"></path><path class="st0" d="M140.55,131.94c-0.42,0-0.83-0.04-1.25-0.13c-0.25-0.06-0.41-0.29-0.39-0.54c0.33-3.34,2.23-6.33,4.04-8.82
			c2.64-3.62,5.63-7.02,8.9-10.15c-3.42,1.85-6.99,3.42-10.7,4.71c-0.26,0.09-0.55-0.05-0.64-0.31c-0.09-0.26,0.05-0.55,0.31-0.64
			c5.22-1.82,10.16-4.2,14.79-7.13c2.52-2.1,5.16-4.04,7.9-5.78c0.22-0.14,0.52-0.09,0.67,0.13c0.16,0.21,0.12,0.51-0.08,0.68
			c-2.51,2.11-5.15,4.04-7.9,5.79c-4.67,3.91-8.88,8.4-12.44,13.28c-1.65,2.26-3.37,4.94-3.8,7.86c1.34,0.16,2.72-0.26,3.92-0.72
			c3.45-1.3,6.73-3.26,9.91-5.16c4.74-2.83,9.64-5.76,15.21-6.56c0.2-0.03,0.39,0.06,0.5,0.23c0.1,0.17,0.1,0.38-0.01,0.55
			l-2.92,4.27l6.87-2.33c0.74-0.25,1.36-0.1,1.6,0.4c0.15,0.33,0.08,0.63,0.03,0.83c-0.01,0.05-0.02,0.1-0.03,0.15
			c-0.02,0.13,0.02,0.23,0.11,0.34c0.25,0.29,0.9,0.51,1.53,0.51c3.72,0.05,7.45-1.1,10.63-2.18c3.27-1.11,6.51-2.34,9.7-3.67
			c0.47-0.4,0.94-0.78,1.41-1.16c3.67-2.96,8.09-5.95,13.02-5.64c0.22,0.01,0.41,0.17,0.46,0.39c0.05,0.22-0.05,0.44-0.25,0.55
			c-4.56,2.46-9.28,4.71-14.11,6.72c-1.8,1.54-3.56,3.26-4.93,5.29c-0.56,0.85-0.72,1.5-0.45,1.91c0.2,0.31,0.63,0.49,1.36,0.58
			c3.07,0.35,6.25-0.62,9.06-1.47l11.77-3.59c0.24-0.07,0.49,0.04,0.6,0.26c0.11,0.22,0.04,0.49-0.16,0.63
			c-1.37,0.96-2.49,2.29-3.21,3.8c4.13-0.6,8.19-2.01,11.79-4.09l0.25-0.15c0.91-0.53,1.85-1.09,2.94-1.26
			c1.17-0.18,2.33,0.11,3.45,0.39c1.27,0.32,2.48,0.62,3.56,0.19c0.26-0.1,0.55,0.02,0.65,0.28c0.1,0.26-0.02,0.55-0.28,0.65
			c-1.38,0.55-2.8,0.19-4.17-0.15c-1.07-0.27-2.08-0.52-3.05-0.37c-0.91,0.14-1.73,0.62-2.59,1.13l-0.25,0.15
			c-3.96,2.3-8.47,3.8-13.03,4.33c-0.17,0.02-0.34-0.05-0.45-0.19c-0.11-0.14-0.14-0.32-0.07-0.48c0.48-1.29,1.21-2.48,2.14-3.49
			l-9.56,2.92c-2.9,0.88-6.19,1.89-9.47,1.51c-0.67-0.08-1.6-0.28-2.08-1.04c-0.5-0.78-0.34-1.79,0.46-3
			c0.9-1.34,1.96-2.54,3.08-3.64c-2.39,0.95-4.8,1.83-7.23,2.66c-3.27,1.11-7.06,2.28-10.97,2.24c-0.71-0.01-1.73-0.24-2.27-0.85
			c-0.28-0.32-0.4-0.71-0.35-1.13c0.01-0.08,0.03-0.17,0.05-0.25c0.01-0.06,0.03-0.14,0.04-0.18c-0.02,0.04-0.16,0.05-0.37,0.12
			l-8.29,2.81c-0.2,0.07-0.43,0-0.56-0.17c-0.13-0.17-0.14-0.41-0.01-0.58l3.1-4.54c-4.88,0.97-9.17,3.53-13.69,6.23
			c-3.21,1.92-6.53,3.9-10.07,5.24C143.18,131.53,141.88,131.94,140.55,131.94z M209.23,111.88c-3.19,0.45-6.16,2.25-8.8,4.24
			C203.41,114.79,206.35,113.38,209.23,111.88z"></path><path class="st0" d="M224.88,150.4c-0.07,0-0.13-0.01-0.2-0.04c-0.24-0.1-0.36-0.38-0.27-0.63l3.07-8.56
			c-1.36,0.29-2.77,0.51-4.18,0.66c-0.49,0.04-1.3,0.12-1.91-0.34c-0.46-0.35-0.67-0.87-0.67-1.41c-1.8,0.89-3.71,1.58-5.66,2.03
			c-1.19,0.26-2.46,0.46-3.69,0.09c-0.23-0.07-0.45-0.16-0.68-0.24c-0.31-0.12-0.6-0.24-0.89-0.28c-0.48-0.08-0.99,0.01-1.54,0.12
			l-7.65,1.5c-0.16,0.03-0.32-0.02-0.44-0.12c-0.12-0.11-0.18-0.27-0.16-0.43l0.1-0.88l-9.76,0.96c-0.18,0.01-0.35-0.06-0.45-0.2
			s-0.12-0.33-0.05-0.49c0.25-0.57,0.57-1.12,0.94-1.62c-5.38,1.97-11.09,2.78-16.21,3.28c-1.69,0.17-3.38,0.31-5.08,0.45
			c-5.57,0.47-11.33,0.96-16.8,2.36c-0.17,0.04-0.36-0.01-0.48-0.14c-0.12-0.13-0.17-0.32-0.12-0.49c0.57-1.91,1.46-3.78,2.6-5.48
			l-14.69,4.14c-0.26,0.08-0.54-0.08-0.62-0.35c-0.07-0.27,0.08-0.54,0.35-0.62l16.08-4.53c0.21-0.06,0.43,0.02,0.55,0.2
			c0.12,0.18,0.11,0.42-0.02,0.59c-1.29,1.65-2.32,3.53-3.01,5.48c5.28-1.26,10.77-1.72,16.08-2.17c1.69-0.14,3.38-0.29,5.06-0.45
			c5.72-0.57,12.18-1.51,18.04-4.06c0.94-0.72,2.01-1.26,3.15-1.55c0.25-0.06,0.49,0.07,0.59,0.3c0.09,0.23,0,0.5-0.22,0.62
			c-0.98,0.55-1.98,1.05-3,1.5c-0.74,0.59-1.38,1.32-1.87,2.14l9.47-0.93c0.15-0.01,0.3,0.04,0.41,0.15s0.16,0.26,0.14,0.41
			l-0.09,0.82l6.93-1.36c0.63-0.12,1.29-0.25,1.94-0.13c0.39,0.06,0.75,0.2,1.09,0.34c0.2,0.08,0.39,0.16,0.59,0.21
			c1.02,0.3,2.13,0.13,3.19-0.11c2.2-0.5,4.34-1.32,6.32-2.41c0.57-0.75,1.47-1.11,2.19-1.34c0.24-0.08,0.49,0.04,0.6,0.26
			c0.11,0.22,0.04,0.49-0.16,0.63c-0.62,0.43-1.26,0.83-1.92,1.2c-0.21,0.4-0.21,0.97,0.13,1.22c0.28,0.21,0.75,0.18,1.21,0.14
			c1.68-0.17,3.34-0.45,4.94-0.84c0.18-0.04,0.37,0.02,0.49,0.15s0.16,0.33,0.1,0.5l-2.07,5.77c2.44-2.74,5.84-4.63,9.49-5.17
			c0.27-0.04,0.53,0.15,0.57,0.42c0.04,0.27-0.15,0.53-0.42,0.57c-4.64,0.68-8.84,3.7-10.97,7.88
			C225.24,150.3,225.06,150.4,224.88,150.4z"></path><path class="st0" d="M250,427.94c-3,0-5.44-2.44-5.44-5.44s2.44-5.44,5.44-5.44c3,0,5.44,2.44,5.44,5.44S253,427.94,250,427.94z
			 M250,418.06c-2.45,0-4.44,1.99-4.44,4.44s1.99,4.44,4.44,4.44s4.44-1.99,4.44-4.44S252.45,418.06,250,418.06z"></path><path class="st0" d="M237.44,426.27c-2.08,0-3.77-1.69-3.77-3.77s1.69-3.77,3.77-3.77s3.77,1.69,3.77,3.77
			S239.52,426.27,237.44,426.27z M237.44,419.73c-1.53,0-2.77,1.24-2.77,2.77s1.24,2.77,2.77,2.77s2.77-1.24,2.77-2.77
			S238.97,419.73,237.44,419.73z"></path><path class="st0" d="M227.19,426.27c-2.08,0-3.77-1.69-3.77-3.77s1.69-3.77,3.77-3.77s3.77,1.69,3.77,3.77
			S229.27,426.27,227.19,426.27z M227.19,419.73c-1.53,0-2.77,1.24-2.77,2.77s1.24,2.77,2.77,2.77s2.77-1.24,2.77-2.77
			S228.72,419.73,227.19,419.73z"></path><path class="st0" d="M272.69,426.27c-2.08,0-3.77-1.69-3.77-3.77s1.69-3.77,3.77-3.77c2.08,0,3.77,1.69,3.77,3.77
			S274.77,426.27,272.69,426.27z M272.69,419.73c-1.53,0-2.77,1.24-2.77,2.77s1.24,2.77,2.77,2.77s2.77-1.24,2.77-2.77
			S274.22,419.73,272.69,419.73z"></path><path class="st0" d="M262.44,426.27c-2.08,0-3.77-1.69-3.77-3.77s1.69-3.77,3.77-3.77c2.08,0,3.77,1.69,3.77,3.77
			S264.52,426.27,262.44,426.27z M262.44,419.73c-1.53,0-2.77,1.24-2.77,2.77s1.24,2.77,2.77,2.77s2.77-1.24,2.77-2.77
			S263.97,419.73,262.44,419.73z"></path></g></g></svg>